<svg xmlns="http://www.w3.org/2000/svg" version="1.1" xmlns:xlink="http://www.w3.org/1999/xlink" xmlns:svgjs="http://svgjs.dev/svgjs" width="100%" height="100%" viewBox="0 0 1000 600"><rect width="1000" height="600" x="0" y="0" fill="#209cee"/><g><rect width="333.3333333333333" height="333.3333333333333" rx="13.333333333333334" ry="13.333333333333334" y="147.57815407784625" fill="#1d1b1b" transform="matrix(0.9971606117639192,0,0,0.9971606117639192,0,-13.352576640753043)" x="125.3559341430664"/><path d="M257.9316914729698 323.5688378899779L257.9316914729698 389.24482914996395L241.1484745405155 389.24482914996395L241.1484745405155 239.2448278161537L296.13099251194126 239.2448278161537Q310.1752816811131 239.2448278161537 320.6647922638971 244.48958310754568Q331.154302846681 249.73433839893764 337.04008378479864 259.17489792344315Q342.89672719351967 268.61545744794876 342.89672719351967 281.4068328530658L342.89672719351967 281.4068328530658Q342.89672719351967 293.99424555240654 337.04008378479864 303.4348050769121Q331.154302846681 312.8753646014176 320.6647922638971 318.23667001039604Q310.1752816811131 323.5688378899779 296.13099251194126 323.5688378899779L296.13099251194126 323.5688378899779L257.9316914729698 323.5688378899779ZM296.13099251194126 253.93014263205123L296.13099251194126 253.93014263205123L257.9316914729698 253.93014263205123L257.9316914729698 308.88352307408036L296.13099251194126 308.88352307408036Q309.97131897533677 308.88352307408036 317.8384519124247 301.5408656661316Q325.70558484951266 294.1982082581829 325.70558484951266 281.4068328530658L325.70558484951266 281.4068328530658Q325.70558484951266 268.41149474217235 317.8384519124247 261.1562499224135Q309.97131897533677 253.93014263205123 296.13099251194126 253.93014263205123Z " fill="#44bb44" transform="matrix(0.9971606117639192,0,0,0.9971606117639192,0,-13.352576640753043)"/><path d="M557.7048032423577 239.24483721129243L557.7048032423577 385.98949080456555L542.0226006785704 385.98949080456555L542.0226006785704 239.24483721129243L557.7048032423577 239.24483721129243ZM619.8674690006192 389.24482166166945L619.8674690006192 389.24482166166945Q609.2805669088207 389.24482166166945 601.1280861536388 385.1685812840785Q592.975605398457 381.0923409064876 588.3898349736671 373.8739985711703Q583.8040645488774 366.6273490110087 583.8040645488774 357.4558081614291L583.8040645488774 357.4558081614291Q583.8040645488774 342.16990674546315 595.5232556344513 333.1965164697943Q607.2424467200251 324.22312619412537 627.0008896614033 324.22312619412537L627.0008896614033 324.22312619412537L655.1382711567185 324.22312619412537L655.1382711567185 323.4305238984827Q655.1382711567185 310.7771943930442 647.4953204487355 303.33239425897193Q639.8523697407525 295.915901349744 626.604588513582 295.915901349744L626.604588513582 295.915901349744Q609.2805669088207 295.915901349744 597.2499963499586 310.38089324522286L597.2499963499586 310.38089324522286L587.0593954059811 300.3884428751563Q604.185266436832 282.4416623238185 627.6236486079797 282.4416623238185L627.6236486079797 282.4416623238185Q640.475128687329 282.4416623238185 650.0429706847298 287.45204112127396Q659.6108126821307 292.4341126938851 664.9325709528745 301.52073186893153Q670.2260219987737 310.5790438191335 670.2260219987737 322.8077649519063L670.2260219987737 322.8077649519063L670.2260219987737 385.98949080456555L655.3364217306291 385.98949080456555L655.3364217306291 372.34540842957375Q649.6466695369085 380.0732808120898 640.475128687329 384.65905123687963Q631.3035878377493 389.24482166166945 619.8674690006192 389.24482166166945ZM622.1320469881698 376.1951910084096L622.1320469881698 376.1951910084096Q633.9361597482769 376.1951910084096 642.7113994500351 370.19405934140076Q651.4583319269489 364.1929276743919 655.1382711567185 354.20047730432526L655.1382711567185 354.20047730432526L655.1382711567185 336.87645569956385L628.8408592762881 336.87645569956385Q615.1967769012963 336.87645569956385 607.6387478678465 342.0566778460857Q600.109026059241 347.2652072174518 600.109026059241 356.83304921485274L600.109026059241 356.83304921485274Q600.109026059241 365.60828891661095 606.1101577262499 370.9017399625103Q612.1395966181032 376.1951910084096 622.1320469881698 376.1951910084096ZM773.7455432546765 372.93986015130577L773.7455432546765 385.98949080456555L694.4853136904086 385.98949080456555L694.4853136904086 372.93986015130577L753.1661907928111 298.9730816329372L696.296976080449 298.9730816329372L696.296976080449 285.7253004057667L771.9338808646361 285.7253004057667L771.9338808646361 298.9730816329372L713.0265459634784 372.93986015130577L773.7455432546765 372.93986015130577ZM827.1612765360242 389.24482166166945L827.1612765360242 389.24482166166945Q816.5460672193811 389.24482166166945 808.3935864641993 385.1685812840785Q800.2411057090175 381.0923409064876 795.6553352842277 373.8739985711703Q791.0695648594378 366.6273490110087 791.0695648594378 357.4558081614291L791.0695648594378 357.4558081614291Q791.0695648594378 342.16990674546315 802.7887559450118 333.1965164697943Q814.5079470305856 324.22312619412537 834.2946971968082 324.22312619412537L834.2946971968082 324.22312619412537L862.403771467279 324.22312619412537L862.403771467279 323.4305238984827Q862.403771467279 310.7771943930442 854.760820759296 303.33239425897193Q847.1178700513129 295.915901349744 833.8700888241425 295.915901349744L833.8700888241425 295.915901349744Q816.5460672193811 295.915901349744 804.5438038853634 310.38089324522286L804.5438038853634 310.38089324522286L794.3532029413861 300.3884428751563Q811.4507667473925 282.4416623238185 834.8891489185402 282.4416623238185L834.8891489185402 282.4416623238185Q847.7406289978894 282.4416623238185 857.3084709952903 287.45204112127396Q866.9046202175356 292.4341126938851 872.1980712634349 301.52073186893153Q877.4915223093343 310.5790438191335 877.4915223093343 322.8077649519063L877.4915223093343 322.8077649519063L877.4915223093343 385.98949080456555L862.630229266034 385.98949080456555L862.630229266034 372.34540842957375Q856.912169847469 380.0732808120898 847.7406289978894 384.65905123687963Q838.5690881483098 389.24482166166945 827.1612765360242 389.24482166166945ZM829.3975472987303 376.1951910084096L829.3975472987303 376.1951910084096Q841.2299672836817 376.1951910084096 849.9768997605955 370.19405934140076Q858.7521394623537 364.1929276743919 862.403771467279 354.20047730432526L862.403771467279 354.20047730432526L862.403771467279 336.87645569956385L836.134666811693 336.87645569956385Q822.4622772118568 336.87645569956385 814.9325554032514 342.0566778460857Q807.3745263698016 347.2652072174518 807.3745263698016 356.83304921485274L807.3745263698016 356.83304921485274Q807.3745263698016 365.60828891661095 813.4039652616548 370.9017399625103Q819.4050969286636 376.1951910084096 829.3975472987303 376.1951910084096Z " fill="#aa0000" transform="matrix(0.9971606117639192,0,0,0.9971606117639192,0,-13.352576640753043)"/></g></svg>